<?xml version="1.0" standalone="no"?>
<!DOCTYPE svg PUBLIC "-//W3C//DTD SVG 20010904//EN"
 "http://www.w3.org/TR/2001/REC-SVG-20010904/DTD/svg10.dtd">
<svg version="1.0" xmlns="http://www.w3.org/2000/svg"
 width="458.000000pt" height="458.000000pt" viewBox="0 0 458.000000 458.000000"
 preserveAspectRatio="xMidYMid meet">
<metadata>
Created by potrace 1.11, written by Peter Selinger 2001-2013
</metadata>
<g transform="translate(0.000000,458.000000) scale(0.100000,-0.100000)"
fill="#000000" stroke="none">
<path d="M60 2290 l0 -2290 2235 0 2235 0 0 2290 0 2290 -2235 0 -2235 0 0
-2290z m1011 1325 c28 -47 22 -41 109 -135 43 -47 65 -79 59 -84 -16 -17 -10
-46 10 -46 11 0 23 5 27 11 4 8 9 8 17 0 8 -8 8 -14 0 -22 -13 -13 -6 -108 8
-123 5 -6 9 -18 9 -29 0 -15 -6 -18 -32 -15 -26 2 -33 8 -33 25 0 12 -3 25 -7
29 -5 4 -8 16 -8 26 0 10 -4 18 -10 18 -5 0 -10 9 -10 20 0 11 -5 20 -11 20
-7 0 -8 -7 -4 -17 11 -29 13 -63 3 -63 -5 0 -2 -10 6 -22 24 -33 20 -38 -28
-38 -37 0 -47 5 -68 33 -41 52 -78 134 -71 153 4 12 3 15 -5 10 -7 -4 -12 -1
-12 8 0 23 4 31 12 29 5 -2 8 2 8 7 0 9 -14 14 -32 11 -9 -1 -21 95 -20 162 0
79 8 119 26 132 9 7 17 18 17 26 1 8 5 -8 9 -36 4 -27 18 -68 31 -90z m2540
68 c7 -23 10 -76 7 -147 -4 -94 -10 -123 -37 -192 -17 -44 -53 -112 -80 -151
l-48 -70 26 -32 c29 -34 47 -38 77 -16 31 23 35 18 18 -22 -9 -21 -18 -45 -21
-53 -5 -17 51 -145 67 -155 6 -3 10 -17 10 -31 0 -14 6 -37 14 -52 17 -33 46
-159 38 -166 -3 -4 -16 -6 -28 -6 -19 0 -25 8 -34 43 -6 23 -13 47 -15 53 -2
6 1 16 7 22 5 5 6 12 1 15 -5 3 -39 -23 -76 -58 -36 -36 -77 -67 -91 -71 -37
-9 -76 3 -76 24 1 16 1 16 14 0 14 -18 32 -25 21 -9 -3 5 -1 12 5 16 5 3 10
-1 10 -9 0 -9 4 -16 10 -16 6 0 5 10 -2 25 -6 14 -15 25 -20 25 -5 0 -6 -4 -3
-10 3 -5 -1 -10 -10 -10 -13 0 -16 6 -11 26 5 17 3 23 -4 19 -5 -3 -10 -14
-10 -23 0 -10 -7 -27 -15 -40 -15 -21 -23 -22 -150 -21 -74 1 -135 4 -135 8 0
4 6 13 13 20 19 19 -37 9 -60 -11 -23 -20 -173 -24 -185 -5 -6 9 -8 9 -8 0 0
-10 -24 -13 -86 -13 l-85 0 73 84 c40 46 78 85 83 85 6 1 15 11 20 24 7 14 17
21 30 19 12 -2 16 0 9 5 -8 5 3 24 33 58 l45 50 -6 -32 c-4 -23 -2 -32 7 -30
6 1 11 -4 10 -10 -5 -22 24 -14 30 8 3 13 -2 28 -14 40 -10 10 -14 19 -8 19 6
0 9 6 6 14 -3 8 19 41 52 76 52 57 59 62 79 51 18 -10 22 -9 22 3 0 8 -7 16
-16 18 -21 4 82 123 108 124 11 1 25 7 31 14 9 10 9 11 0 6 -18 -10 -25 10 -8
24 8 7 15 18 15 24 -1 9 -83 83 -122 107 -11 7 -10 11 2 20 13 9 12 10 -2 5
-19 -6 -187 95 -202 121 -6 11 -5 14 3 9 6 -4 11 -3 11 2 0 12 -29 24 -41 16
-5 -3 -9 5 -9 18 l-1 23 -19 -23 c-16 -19 -23 -21 -40 -12 -11 6 -18 15 -15
21 4 5 1 9 -4 9 -6 0 -11 -4 -11 -9 0 -17 -100 22 -106 41 -6 20 -20 24 -26 7
-3 -8 -16 -10 -41 -5 -25 5 -34 11 -31 20 8 21 -17 31 -31 13 -7 -10 -18 -17
-25 -17 -10 0 -10 4 1 16 11 14 10 18 -6 30 -17 13 -16 14 18 14 26 0 37 -4
37 -15 0 -17 21 -20 35 -6 12 11 220 -56 262 -85 15 -10 30 -19 33 -19 8 -1
94 -44 115 -57 86 -55 105 -71 105 -84 0 -9 6 -14 13 -11 6 2 41 -20 77 -50
35 -29 67 -53 70 -53 7 0 8 1 92 95 117 130 157 198 165 281 5 43 8 52 19 43
7 -6 18 -27 25 -46z m-1295 16 c4 -8 9 -7 15 2 7 12 9 11 9 -1 0 -11 3 -11 12
-2 13 13 94 14 143 2 25 -6 27 -8 12 -15 -17 -7 -17 -8 -1 -27 17 -18 16 -18
-42 -12 -32 4 -61 11 -63 17 -2 6 -6 5 -10 -1 -7 -11 -246 -20 -256 -10 -4 3
-8 14 -9 25 -3 15 6 19 43 24 80 10 140 9 147 -2z m-196 -44 c0 -15 -22 -25
-53 -25 -17 0 -19 3 -8 9 7 5 11 14 7 20 -5 7 -1 9 8 5 11 -4 16 0 16 11 0 14
3 15 15 5 8 -7 15 -18 15 -25z m-93 13 c-2 -7 0 -21 5 -30 7 -14 5 -16 -8 -11
-9 3 -19 2 -23 -3 -3 -5 -46 -22 -96 -38 -49 -15 -120 -43 -158 -62 -71 -36
-87 -40 -87 -23 0 5 5 7 11 3 7 -4 7 1 -1 16 -6 12 -9 24 -6 28 3 3 6 0 6 -6
0 -6 8 -10 19 -9 12 1 17 7 13 19 -3 13 1 18 17 18 11 0 21 4 21 8 0 5 16 16
35 25 30 14 35 15 35 2 0 -8 4 -15 10 -15 5 0 7 6 4 14 -5 13 80 50 140 60 16
3 31 8 34 11 11 10 34 5 29 -7z m-381 -173 c-3 -11 -6 -23 -6 -27 0 -5 -5 -8
-11 -8 -5 0 -8 4 -4 9 3 5 0 13 -6 17 -6 3 -15 0 -20 -7 -7 -12 -9 -11 -9 2 0
21 19 38 42 36 14 -1 18 -7 14 -22z m-110 -93 c-18 -16 -18 -16 -6 6 6 13 14
21 18 18 3 -4 -2 -14 -12 -24z m972 8 c7 0 11 -4 8 -9 -4 -5 3 -7 14 -4 14 4
20 0 20 -11 0 -17 16 -22 22 -6 5 15 48 0 48 -17 0 -13 -3 -13 -15 -3 -9 8
-15 9 -15 2 0 -6 5 -14 10 -17 20 -12 10 -33 -14 -31 -15 2 -27 -3 -31 -12 -3
-8 -8 -12 -11 -9 -3 3 -20 -3 -38 -13 -29 -16 -32 -16 -31 -1 0 9 5 23 10 30
6 10 4 13 -6 9 -8 -3 -24 1 -34 8 -19 14 -19 15 3 20 26 7 28 22 5 39 -22 16
-7 38 21 31 11 -3 27 -6 34 -6z m-404 -7 c-5 -5 -12 -12 -15 -16 -3 -5 -9 -2
-12 7 -5 12 0 16 15 16 12 0 17 -3 12 -7z m-38 -14 c4 -7 -1 -16 -10 -21 -12
-7 -15 -16 -10 -31 3 -12 3 -19 -1 -14 -11 9 -45 -22 -45 -41 0 -9 -7 -13 -20
-9 -12 3 -23 -1 -29 -10 -15 -28 -31 -3 -31 48 0 32 4 50 13 51 6 0 17 2 22 2
6 1 16 5 23 9 6 5 16 6 21 3 5 -3 14 1 21 9 15 18 36 19 46 4z m-570 -14 c-8
-8 -22 -12 -30 -9 -11 4 -16 0 -16 -13 0 -11 -13 -32 -30 -46 -34 -31 -37 -43
-15 -67 16 -18 11 -50 -9 -50 -6 0 -4 -5 4 -10 11 -8 7 -10 -17 -8 l-32 2 0
74 c0 65 3 77 22 93 12 10 29 18 38 19 8 0 19 4 25 9 8 8 22 12 67 20 5 0 2
-6 -7 -14z m937 -24 c-9 -14 -9 -21 0 -30 8 -8 7 -11 -6 -11 -9 0 -17 -6 -17
-13 0 -8 -7 -14 -15 -14 -8 0 -15 2 -15 4 0 6 25 47 38 65 8 9 11 23 7 30 -7
11 -5 11 6 0 10 -10 11 -17 2 -31z m277 -23 c0 -5 4 -7 9 -3 11 6 101 -35 101
-47 0 -4 7 -8 15 -8 8 0 15 -7 15 -15 0 -8 6 -12 14 -9 16 6 76 -42 76 -62 0
-8 10 -14 23 -14 12 -1 37 -14 55 -29 l33 -29 -52 -56 c-36 -40 -55 -53 -60
-44 -4 6 -6 15 -3 19 2 4 -4 13 -13 20 -15 12 -16 11 -11 -9 6 -21 4 -20 -29
9 -20 17 -41 35 -47 41 -6 5 -35 23 -64 39 -29 16 -50 34 -46 40 3 6 0 9 -7 7
-22 -4 -109 36 -109 50 0 7 20 21 45 32 46 20 54 35 35 70 -8 16 -8 18 5 14 8
-4 15 -10 15 -16z m-847 -4 c-7 -3 -9 -12 -6 -21 4 -9 -1 -19 -11 -25 -11 -6
-15 -16 -11 -29 4 -13 2 -19 -9 -19 -14 0 -33 -35 -28 -52 1 -5 -8 -8 -21 -8
-30 0 -30 33 1 67 19 21 19 25 5 30 -9 4 -21 -1 -28 -11 -7 -9 -16 -13 -19 -8
-9 15 39 42 63 35 14 -4 23 0 28 13 7 21 23 34 38 33 6 0 5 -3 -2 -5z m303
-11 c21 -20 30 -47 14 -41 -7 2 -10 6 -8 10 2 3 -6 15 -16 27 -23 25 -16 28
10 4z m174 -17 c-14 -7 -29 -11 -34 -8 -12 6 15 22 39 22 17 0 17 -2 -5 -14z
m-188 -11 c12 -15 9 -25 -6 -25 -7 0 -16 9 -19 20 -5 20 12 24 25 5z m138 11
c0 -3 -4 -8 -10 -11 -5 -3 -10 -1 -10 4 0 6 5 11 10 11 6 0 10 -2 10 -4z
m-567 -80 c4 -11 0 -11 -18 -2 -13 6 -21 14 -19 18 6 10 31 -1 37 -16z m-433
-131 c0 -11 -9 -31 -20 -43 -11 -11 -17 -27 -14 -35 2 -7 0 -27 -7 -43 -6 -16
-13 -39 -15 -52 -1 -13 -8 -30 -15 -38 -9 -11 -8 -18 2 -31 12 -15 12 -16 -1
-8 -50 28 -67 46 -65 67 1 13 0 15 -2 5 -4 -14 -7 -16 -19 -6 -12 9 -18 2 -39
-45 -14 -31 -25 -61 -25 -66 0 -9 90 -40 116 -40 7 0 17 -8 23 -17 7 -14 13
-15 21 -6 9 8 29 4 81 -17 70 -29 81 -29 54 0 -14 15 -12 16 15 12 17 -2 30
-8 30 -13 0 -5 8 -9 18 -9 14 0 15 2 2 10 -13 8 -12 10 3 10 9 0 19 -1 20 -2
2 -2 11 3 20 10 10 9 17 10 22 2 8 -14 95 -13 95 1 0 6 7 8 16 5 8 -3 12 -2 9
4 -3 6 0 10 7 10 10 0 10 2 0 8 -7 5 -15 26 -17 48 -3 26 -2 34 4 25 8 -12 51
-25 51 -15 0 18 -17 34 -35 34 -18 0 -22 4 -18 21 3 11 17 25 30 30 20 7 22
12 14 28 -8 14 -7 20 5 25 8 3 17 -1 21 -10 3 -8 30 -38 59 -66 46 -43 52 -53
43 -70 -7 -13 -7 -23 0 -32 6 -7 8 -16 4 -19 -3 -4 -2 -7 3 -7 6 0 15 5 21 11
16 16 57 -15 133 -101 l62 -70 -346 0 c-233 0 -346 4 -346 11 0 5 -5 7 -11 4
-22 -14 -71 -16 -85 -4 -13 10 -17 10 -24 -1 -7 -11 -16 -8 -49 13 -23 15 -53
41 -68 57 -14 16 -29 27 -33 25 -5 -3 -13 -28 -20 -56 -11 -46 -15 -50 -39
-47 -22 3 -26 7 -23 33 2 17 12 56 23 88 18 52 18 60 4 93 -8 20 -15 38 -15
41 0 7 45 -19 52 -31 4 -6 8 3 8 19 0 17 8 44 18 60 32 52 33 77 7 130 -34 69
-32 76 15 53 44 -22 76 -17 85 13 6 17 15 19 71 18 58 -2 64 -4 64 -24z m33 5
c-3 -11 -9 -20 -14 -20 -11 0 -11 3 -3 24 9 23 23 20 17 -4z m382 10 c3 -6 2
-10 -3 -10 -4 0 -18 -9 -31 -21 -24 -22 -44 -15 -53 19 -4 15 2 18 38 20 24 1
46 -3 49 -8z m40 0 c3 -6 -1 -7 -9 -4 -18 7 -21 14 -7 14 6 0 13 -4 16 -10z
m-305 -111 c0 -5 5 -7 12 -3 7 4 8 3 4 -5 -4 -6 -12 -9 -17 -5 -5 3 -17 0 -26
-8 -15 -12 -15 -11 -4 10 12 23 31 30 31 11z m43 -4 c-3 -9 -8 -14 -10 -11 -3
3 -2 9 2 15 9 16 15 13 8 -4z m35 -32 c-6 -7 -8 -22 -5 -33 3 -11 0 -20 -6
-20 -7 0 -6 -4 3 -10 21 -13 5 -23 -18 -11 -15 8 -23 7 -32 -4 -12 -14 -5 -39
8 -31 4 2 16 0 27 -5 15 -6 16 -8 4 -8 -9 -1 -22 -8 -29 -16 -16 -20 -34 -19
-26 0 4 10 -3 19 -18 26 -22 10 -23 13 -9 40 8 16 19 27 24 24 5 -4 17 -1 26
4 17 10 16 10 -2 11 -17 0 -15 5 15 34 22 21 38 29 42 22 4 -5 2 -16 -4 -23z
m-88 -12 c0 -5 -7 -14 -15 -21 -13 -10 -15 -9 -15 9 0 12 6 21 15 21 8 0 15
-4 15 -9z m833 -291 c14 -11 36 -20 50 -20 14 0 35 -9 48 -20 l24 -19 -75 0
c-50 0 -81 4 -94 14 -11 8 -28 15 -38 15 -23 0 -23 19 0 36 25 19 56 17 85 -6z
m-1263 -130 c0 -5 -6 -10 -13 -10 -7 0 -13 -9 -13 -20 0 -11 5 -20 11 -20 5 0
-3 -11 -20 -25 -23 -19 -26 -24 -12 -25 9 0 17 6 18 13 0 6 4 3 8 -8 10 -25 5
-35 -19 -35 -10 0 -20 -6 -23 -13 -4 -10 2 -13 19 -9 14 2 24 0 24 -7 0 -7 -8
-11 -17 -9 -10 2 -18 -1 -18 -7 0 -5 -3 -15 -7 -21 -9 -14 0 -24 22 -24 14 0
19 -12 22 -62 3 -35 5 -63 4 -64 -1 -1 -16 3 -33 8 -23 6 -33 15 -33 27 0 11
4 21 8 23 5 2 12 16 16 32 6 24 4 28 -9 22 -15 -5 -16 2 -11 66 3 40 5 95 6
121 0 30 4 46 10 42 6 -3 10 -1 10 4 0 6 11 11 25 11 14 0 25 -4 25 -10z m634
-1 c-5 -9 35 -33 43 -25 3 3 -2 8 -11 12 -45 17 0 24 160 23 137 0 181 -3 199
-15 12 -8 29 -12 36 -9 9 3 33 -14 62 -44 46 -48 59 -69 35 -55 -7 4 -10 3 -5
-1 4 -5 16 -10 27 -12 20 -3 21 -1 40 85 l12 52 98 0 c76 0 102 -4 114 -16 20
-20 21 -30 1 -14 -8 7 -22 9 -31 6 -13 -5 -15 -15 -11 -50 5 -35 3 -47 -13
-61 -11 -10 -20 -24 -20 -32 0 -7 -8 -13 -17 -13 -13 0 -14 -3 -5 -12 9 -9 16
-6 32 12 11 12 17 26 14 31 -3 5 2 6 9 3 8 -3 18 -15 21 -27 6 -21 7 -21 20
-5 41 54 109 118 118 112 7 -5 9 -2 5 8 -3 9 4 25 17 37 20 19 34 21 164 21
107 0 142 -3 143 -12 0 -10 2 -10 6 0 6 14 53 17 53 2 0 -5 10 -10 23 -10 18
0 19 2 7 10 -10 7 25 10 107 10 79 0 124 -4 129 -11 3 -6 1 -15 -6 -19 -7 -4
1 -10 22 -15 21 -4 27 -9 18 -12 -8 -3 -18 -11 -22 -17 -5 -7 -8 -6 -8 4 0 13
-1 13 -10 0 -15 -23 -12 -30 10 -30 11 0 20 -4 20 -10 0 -5 7 -10 15 -10 8 0
15 6 15 13 0 8 3 7 10 -3 8 -12 10 -12 16 3 3 9 10 14 15 11 5 -3 9 2 9 10 0
11 9 16 30 16 17 0 30 -4 30 -9 0 -16 -72 -55 -97 -53 -15 1 -23 -4 -23 -14 0
-9 -8 -14 -17 -13 -10 1 -21 0 -25 -1 -5 -1 -11 -3 -15 -5 -5 -1 -21 -7 -38
-14 -54 -21 -58 -22 -67 -9 -7 10 -11 10 -21 -3 -11 -15 -105 -63 -118 -61 -3
0 -6 -4 -6 -11 0 -9 30 -12 101 -12 92 0 102 -2 108 -20 l6 -20 1 20 c1 19 58
61 68 51 7 -6 -16 -46 -26 -46 -5 0 -12 -11 -15 -25 -4 -16 -11 -22 -21 -19
-10 4 -15 0 -15 -10 0 -15 -15 -17 -119 -15 -103 1 -120 3 -132 20 -7 10 -24
19 -36 19 -18 0 -25 7 -30 30 -3 17 -17 39 -31 50 -13 11 -20 20 -13 20 17 0
13 27 -5 34 -13 5 -14 9 -4 21 7 8 9 15 5 15 -4 0 -14 -8 -21 -17 -13 -17 -13
-17 -14 2 0 16 -4 14 -21 -13 -21 -32 -22 -32 -41 -15 -11 10 -19 13 -18 8 8
-39 -25 -46 -48 -10 -12 19 -13 19 -7 -5 4 -14 8 -39 9 -56 3 -30 1 -31 -23
-24 -32 9 -51 3 -51 -16 0 -8 6 -11 15 -8 8 4 15 1 15 -5 0 -6 -11 -11 -25
-11 -14 0 -25 6 -25 13 0 9 -3 8 -9 -2 -6 -9 -11 -10 -15 -2 -9 15 -27 4 -20
-12 6 -16 -31 -38 -51 -31 -19 8 -19 20 0 28 18 6 20 32 3 42 -7 4 -8 3 -4 -4
4 -7 4 -12 -1 -12 -4 0 -14 -13 -21 -30 l-14 -30 -126 1 c-70 0 -121 3 -114 6
6 2 12 16 12 29 0 13 -6 24 -12 25 -7 0 -20 2 -29 4 -12 2 -15 -3 -12 -15 7
-27 -24 -50 -65 -49 -20 0 -31 3 -24 6 19 7 14 26 -5 19 -15 -5 -15 -4 1 9 11
8 26 15 33 15 7 0 13 8 13 17 0 13 -3 14 -12 5 -14 -14 -32 -16 -24 -3 11 18
-23 81 -44 81 -11 0 -20 -4 -20 -10 0 -5 -8 -10 -18 -10 -10 0 -25 -11 -32
-25 -7 -13 -16 -23 -19 -22 -3 1 -16 -5 -28 -13 l-22 -14 22 -11 c30 -15 72 2
88 34 17 38 22 12 6 -35 l-14 -39 -90 -3 c-84 -3 -91 -1 -96 18 -7 26 -24 26
-32 0 -3 -11 -15 -20 -26 -20 -17 0 -18 3 -7 20 9 14 14 16 20 7 9 -14 10 -5
2 16 -4 10 -14 12 -37 8 -25 -6 -32 -12 -31 -29 1 -20 -4 -22 -53 -22 -30 0
-53 5 -53 10 0 7 -6 7 -19 0 -11 -5 -36 -10 -55 -10 -28 0 -40 7 -61 34 -16
21 -23 40 -19 50 5 12 0 19 -15 23 -11 3 -21 9 -21 14 0 5 15 2 33 -8 24 -13
59 -17 144 -18 61 -1 109 3 107 7 -3 5 -24 18 -47 30 -23 12 -37 23 -30 25 9
3 7 11 -7 25 -17 18 -18 24 -6 52 7 17 17 30 22 29 5 -1 9 10 9 23 0 13 -2 24
-4 24 -9 0 -30 -36 -31 -53 0 -10 -7 -20 -15 -23 -10 -4 -13 -14 -9 -29 4 -14
0 -24 -9 -28 -21 -8 -144 22 -161 38 -7 8 -16 11 -20 8 -3 -4 -6 -2 -6 3 0 5
-11 10 -24 10 -14 1 -35 11 -48 23 -19 19 -20 23 -8 31 8 5 26 10 40 10 18 0
31 9 43 30 l18 29 139 -1 c77 0 137 -4 134 -9z m1672 -2 c-10 -8 -29 -12 -42
-9 -39 7 -27 22 18 22 37 0 40 -1 24 -13z m399 2 c9 -14 10 -324 1 -338 -9
-14 -56 -15 -56 0 0 5 4 8 9 5 5 -3 6 15 3 39 -3 34 -1 45 9 45 11 0 11 2 -1
11 -11 8 -12 12 -3 16 9 3 10 10 4 21 -5 9 -12 53 -16 97 -4 44 -9 88 -11 98
-4 13 1 17 25 17 16 0 33 -5 36 -11z m-2335 -341 c0 -10 -97 -10 -103 0 -3 4
-8 31 -12 61 l-7 54 61 -54 c33 -29 61 -57 61 -61z m1974 75 c-12 -86 -9 -83
-70 -83 -50 0 -55 2 -44 15 9 11 15 13 20 5 5 -8 9 -8 12 2 3 7 5 16 4 20 -1
9 65 78 75 78 4 0 5 -17 3 -37z m-2417 -5 c-3 -8 -6 -5 -6 6 -1 11 2 17 5 13
3 -3 4 -12 1 -19z m1954 -57 c-11 -7 -10 -10 5 -14 14 -3 11 -5 -8 -6 -20 -1
-26 3 -22 14 4 8 14 15 23 15 13 0 13 -2 2 -9z m-1885 -112 c-3 -15 -1 -31 5
-35 6 -3 8 -12 5 -20 -3 -8 0 -14 6 -14 6 0 3 -9 -6 -19 -21 -23 -12 -49 10
-30 11 9 14 8 14 -5 0 -19 -43 -22 -58 -3 -6 6 -13 30 -17 52 -4 22 -9 48 -11
57 -6 20 32 62 47 52 6 -3 8 -19 5 -35z m324 25 c0 -6 9 -14 20 -17 11 -3 20
-1 20 4 0 5 -4 9 -10 9 -5 0 -10 5 -10 10 0 6 17 10 39 10 l39 0 33 -82 c19
-45 36 -86 37 -90 2 -4 -30 -8 -71 -8 -69 0 -74 2 -85 25 -16 36 -15 38 13 31
26 -7 30 0 19 29 -6 14 -9 14 -30 0 -23 -15 -23 -14 -39 37 -8 28 -15 53 -15
54 0 2 9 2 20 1 11 -1 20 -7 20 -13z m405 -15 c0 -32 -9 -35 -67 -19 -21 6
-40 11 -43 10 -7 -1 -65 30 -65 34 0 2 39 4 88 4 l87 1 0 -30z m146 14 l-24
-16 23 -9 c31 -11 22 -17 -33 -22 -39 -3 -46 0 -51 18 -12 43 -8 46 51 46 57
0 57 0 34 -17z m69 -2 c0 -30 -17 -34 -22 -6 -4 17 -1 25 8 25 8 0 14 -9 14
-19z m98 7 c15 -15 16 -48 2 -48 -5 0 -10 -5 -10 -11 0 -6 -7 -26 -16 -44 -14
-29 -19 -33 -61 -33 -25 -1 -51 -7 -59 -13 -11 -9 -14 -8 -14 4 0 10 11 17 28
19 21 2 27 8 27 28 0 14 7 28 15 32 23 10 52 9 45 -2 -3 -5 -1 -10 4 -10 16 0
13 16 -4 30 -8 7 -15 19 -15 26 0 8 7 14 15 14 8 0 15 -5 15 -11 0 -5 5 -7 12
-3 9 6 9 9 0 12 -13 4 -17 22 -4 22 4 0 13 -5 20 -12z m190 0 c9 -9 15 -9 24
0 13 13 214 17 221 5 3 -5 -7 -9 -21 -9 -43 -3 -63 -9 -73 -25 -5 -8 -9 -10
-9 -6 0 4 -9 3 -19 -3 -17 -8 -20 -6 -23 13 -2 16 -11 23 -32 25 -27 3 -28 2
-24 -27 4 -25 1 -31 -14 -31 -10 0 -18 -7 -18 -15 0 -8 -5 -15 -10 -15 -6 0
-15 -11 -20 -25 -5 -14 -14 -25 -20 -25 -5 0 -10 -7 -10 -15 0 -10 -10 -15
-32 -14 -30 0 -31 1 -10 9 12 6 22 18 22 30 0 11 5 20 11 20 5 0 7 -4 4 -10
-3 -6 1 -7 9 -4 9 3 14 10 11 14 -3 4 2 11 11 14 11 4 15 14 11 31 -3 16 1 29
11 34 13 7 12 10 -6 15 -12 4 -22 12 -22 17 0 13 14 11 28 -3z m514 -5 c10 -9
18 -23 18 -32 0 -13 2 -14 9 -2 6 9 4 20 -7 30 -14 15 -14 16 8 19 14 2 26 -1
28 -6 2 -6 15 -8 29 -6 23 4 25 3 13 -11 -10 -12 -10 -15 4 -15 9 0 16 -7 16
-15 0 -13 -13 -15 -72 -13 -51 2 -72 7 -71 15 3 13 -47 8 -77 -8 -13 -7 -13
-9 2 -14 9 -4 14 -13 11 -21 -4 -12 -8 -12 -21 -2 -13 11 -15 10 -9 -4 3 -10
2 -20 -4 -24 -6 -3 -8 -12 -5 -20 6 -16 -5 -19 -19 -5 -12 12 -87 17 -103 8
-6 -4 -9 -14 -5 -22 4 -13 -9 -15 -81 -15 -77 0 -87 2 -84 18 6 33 98 83 98
53 0 -17 30 0 31 18 0 9 3 11 6 4 3 -9 11 -7 26 7 12 12 28 18 39 14 14 -4 22
3 33 28 8 18 14 27 15 21 0 -7 12 -13 28 -13 16 0 36 6 45 13 26 18 78 19 99
0z m240 -9 c-3 -17 -14 -27 -41 -34 -50 -14 -51 -13 -51 15 0 13 -8 29 -17 34
-14 8 -2 10 48 10 63 -1 66 -2 61 -25z m65 13 c0 -8 -13 -19 -29 -25 -26 -10
-40 0 -18 13 6 4 8 11 5 16 -4 5 5 9 18 9 13 0 24 -6 24 -13z m163 1 c0 25 20
11 21 -15 1 -27 1 -27 8 -4 5 19 14 24 44 27 37 2 38 1 21 -17 -10 -11 -17
-33 -17 -49 0 -16 -4 -27 -9 -24 -4 3 -8 -2 -8 -10 0 -19 -25 -21 -36 -4 -4 7
-3 8 4 4 7 -4 12 -3 12 3 0 18 -18 21 -24 4 -8 -19 20 -46 37 -36 5 3 8 0 5
-7 -2 -8 -10 -16 -18 -18 -7 -3 -10 0 -6 7 5 7 -1 11 -13 11 -12 0 -21 -7 -21
-16 0 -9 5 -12 13 -8 9 5 9 3 -1 -7 -11 -12 -14 -12 -21 0 -6 9 -11 10 -15 2
-11 -17 -73 -14 -73 4 0 8 4 12 9 9 4 -3 8 6 8 20 0 34 31 97 43 89 7 -4 8 1
3 12 -8 21 14 40 26 22 6 -9 8 -9 8 1z m485 -23 c-3 -19 -7 -52 -11 -72 -9
-67 -13 -73 -46 -73 -27 0 -30 3 -24 23 3 12 12 52 18 90 12 64 13 67 40 67
27 0 29 -2 23 -35z m-1510 6 c3 -5 1 -12 -4 -15 -5 -3 -11 1 -15 9 -6 16 9 21
19 6z m-22 -46 c-4 -11 -10 -11 -29 -3 -29 14 -23 27 10 21 15 -3 23 -10 19
-18z m42 -4 c3 -5 1 -12 -5 -16 -5 -3 -10 1 -10 9 0 18 6 21 15 7z m519 -67
c8 -22 6 -23 -27 -17 -25 5 -26 6 -10 19 24 18 30 17 37 -2z m-1704 -105 c0
24 29 9 44 -23 22 -46 21 -59 -4 -51 -12 4 -20 2 -20 -5 0 -6 5 -8 10 -5 6 3
10 2 10 -4 0 -6 7 -8 15 -4 9 3 15 2 14 -3 -1 -5 0 -11 1 -14 1 -3 4 -18 6
-35 3 -16 10 -34 15 -40 7 -7 8 -3 4 10 -6 18 -4 17 14 -4 19 -21 25 -39 22
-66 0 -6 9 -15 22 -20 12 -6 21 -18 21 -27 -1 -10 2 -16 7 -15 5 1 19 -13 30
-30 12 -20 16 -33 9 -33 -6 0 -8 -5 -5 -10 4 -6 10 -8 14 -6 9 6 56 -42 64
-66 3 -10 2 -20 -3 -23 -6 -4 -10 -12 -9 -18 0 -9 2 -9 6 1 2 6 13 12 23 12
22 0 36 -18 32 -42 -2 -10 2 -18 8 -18 6 0 8 5 5 10 -3 6 -2 10 3 10 19 0 20
-27 1 -38 -10 -7 -19 -8 -19 -4 0 4 -17 21 -38 37 -29 21 -37 34 -34 50 2 14
-2 24 -12 28 -17 7 -21 -3 -8 -19 4 -5 -5 4 -21 19 -15 16 -25 32 -22 37 7 11
-15 70 -26 70 -5 0 -9 -5 -9 -12 0 -6 -9 -3 -20 7 -11 10 -20 23 -20 29 0 6 5
4 10 -4 8 -12 10 -10 10 8 0 18 -4 22 -18 18 -15 -5 -23 3 -38 36 -20 46 -21
48 -23 92 0 16 -4 27 -7 24 -12 -13 -54 40 -54 70 0 16 -6 32 -14 35 -7 3 -16
15 -19 27 -4 17 -3 19 9 9 10 -8 14 -8 14 0z m542 -33 c17 -23 47 -58 66 -78
25 -26 33 -42 28 -55 -7 -17 -8 -17 -17 0 -11 19 -31 24 -24 5 4 -9 -6 -13
-32 -12 -66 3 -69 4 -90 23 -12 11 -24 17 -29 13 -4 -4 -5 0 -2 8 3 9 -1 25
-9 35 -13 17 -15 17 -10 3 11 -31 -1 -19 -29 27 -14 25 -24 49 -20 52 3 3 10
-6 16 -21 5 -15 15 -24 20 -21 12 8 3 47 -14 57 -6 4 18 7 52 6 61 -1 63 -2
94 -42z m704 29 c-3 -8 -1 -15 4 -15 9 0 26 -39 22 -52 -1 -5 3 -8 8 -8 15 0
12 -27 -5 -60 -17 -34 -35 -39 -35 -12 0 10 -5 23 -11 29 -13 13 -21 66 -9 58
4 -3 11 2 14 11 7 19 -10 44 -31 44 -8 0 -11 5 -8 10 3 6 18 10 32 10 18 0 24
-4 19 -15z m184 -2 c0 -10 5 -25 10 -33 7 -11 8 -5 4 20 l-5 35 15 -25 c10
-16 16 -19 16 -10 0 8 7 0 15 -17 16 -38 30 -42 45 -13 7 12 16 17 28 13 30
-10 41 -33 35 -71 -9 -57 -23 -68 -87 -64 -30 2 -55 7 -54 10 1 4 -3 18 -9 31
l-10 25 -11 -32 c-13 -39 -51 -46 -53 -9 -1 12 -2 29 -3 39 -1 9 -4 20 -8 24
-16 16 -7 24 20 18 26 -6 26 -6 7 9 -11 9 -29 17 -39 17 -17 0 -45 25 -46 41
0 3 29 7 65 8 56 1 65 -1 65 -16z m731 5 c0 -10 2 -10 6 0 2 6 11 12 19 12 12
0 10 -8 -6 -40 -19 -38 -46 -58 -34 -25 4 8 10 15 15 15 5 0 9 5 9 10 0 6 -7
10 -16 10 -8 0 -12 -4 -9 -10 3 -5 1 -10 -5 -10 -6 0 -8 -4 -5 -10 3 -5 0 -10
-7 -11 -10 0 -10 -2 0 -6 18 -7 15 -24 -13 -65 -27 -40 -62 -52 -83 -28 -8 8
-11 10 -8 3 4 -6 2 -14 -4 -18 -5 -3 -10 -2 -10 3 0 4 -26 7 -57 6 -35 -1 -48
1 -34 5 14 3 27 13 29 20 3 9 0 11 -8 6 -25 -15 20 42 85 109 11 12 19 24 18
29 -2 4 24 7 57 7 41 0 60 -4 61 -12z m459 -3 c0 -30 -103 -248 -131 -276 -10
-10 -19 -26 -19 -34 0 -8 -6 -14 -12 -12 -7 1 -12 -5 -11 -14 2 -8 -14 -33
-35 -55 -21 -21 -41 -47 -45 -57 -4 -10 -11 -15 -17 -12 -5 3 -10 -1 -10 -9 0
-8 -5 -18 -12 -22 -7 -5 -8 -3 -3 6 5 8 3 11 -4 9 -7 -3 -12 -8 -12 -12 1 -4
-7 -16 -17 -27 -14 -16 -25 -18 -41 -12 -23 8 -23 9 11 38 19 16 61 67 93 112
33 45 63 82 67 82 5 0 8 7 8 15 0 10 10 15 29 15 37 0 48 15 22 30 -19 10 -19
13 17 85 24 49 39 70 45 62 5 -7 6 -3 2 10 -3 12 1 38 9 57 12 28 21 36 40 36
16 0 26 -6 26 -15z m-1455 -15 c-3 -5 -1 -10 4 -10 6 0 11 -7 11 -15 0 -8 4
-15 9 -15 6 0 6 -12 -1 -31 -7 -22 -7 -37 0 -55 l11 -24 -89 1 -89 1 12 26
c12 25 57 77 57 65 0 -3 8 4 19 15 10 12 26 22 35 22 9 0 15 3 15 8 -2 12 1
22 7 22 3 0 2 -4 -1 -10z m-555 -225 c-8 -9 -9 -15 -2 -15 6 0 14 5 17 10 4 6
11 8 16 5 10 -7 8 -33 -5 -53 -5 -8 -3 -18 4 -25 10 -9 11 -9 6 0 -9 16 12 27
27 14 7 -5 56 -10 110 -9 115 0 191 -23 181 -56 -4 -13 -2 -17 7 -13 8 2 13
10 11 17 -1 7 5 9 15 6 141 -41 265 -53 386 -37 48 7 94 14 102 17 10 4 15 -1
15 -15 0 -18 2 -20 14 -9 7 7 12 17 10 23 -3 8 54 32 148 62 10 3 18 -2 21
-14 3 -12 5 -8 6 10 1 23 5 28 24 25 12 -2 21 2 20 7 -1 6 14 21 32 34 40 27
85 35 85 15 0 -8 5 -14 11 -14 5 0 8 4 4 9 -3 5 -1 12 5 16 5 3 10 -1 10 -9 0
-9 5 -16 10 -16 6 0 10 6 10 13 0 10 17 14 60 15 49 0 57 -2 47 -13 -6 -7 -13
-9 -15 -4 -7 17 -21 9 -17 -10 3 -18 -42 -68 -57 -63 -5 1 -8 -2 -8 -8 0 -23
-192 -135 -216 -126 -8 3 -13 2 -10 -3 3 -5 -33 -21 -80 -36 -64 -22 -88 -25
-96 -17 -17 17 -31 15 -25 -2 4 -11 -5 -16 -34 -21 -22 -4 -43 -5 -46 -2 -9
10 8 28 20 21 7 -3 1 4 -13 15 -14 11 -37 21 -53 21 -25 0 -26 -2 -15 -20 7
-11 21 -20 30 -20 28 0 21 -17 -9 -25 -19 -4 -29 -2 -35 9 -12 21 -32 21 -24
0 5 -14 -5 -15 -94 -10 -144 9 -249 33 -235 55 2 5 -3 15 -12 22 -14 12 -15
11 -8 -10 6 -20 4 -23 -10 -18 -9 4 -21 7 -26 7 -6 0 -7 5 -3 12 5 8 2 9 -9 5
-9 -3 -19 -2 -22 4 -4 5 -11 7 -16 4 -5 -4 -9 -1 -9 5 0 6 -4 9 -8 6 -4 -2
-23 3 -41 11 -24 12 -29 18 -19 25 9 7 8 8 -5 4 -18 -6 -64 13 -89 36 -7 7
-26 20 -42 28 -15 8 -54 38 -85 67 l-56 52 49 1 c42 0 47 -2 36 -15z m492 -25
c3 -34 1 -40 -15 -40 -11 0 -15 4 -11 12 5 8 2 9 -10 5 -22 -9 -46 14 -46 42
0 18 6 21 39 21 38 0 39 -1 43 -40z m88 31 c0 -13 -26 -32 -33 -24 -14 13 -6
33 13 33 11 0 20 -4 20 -9z m430 -1 c0 -11 -77 -70 -91 -70 -5 0 -6 7 -3 15 4
8 1 15 -5 15 -6 0 -11 7 -11 15 0 20 -7 19 -37 -5 -35 -28 -44 -25 -32 10 l11
30 84 0 c49 0 84 -4 84 -10z m619 -321 c-16 -10 -23 -4 -14 10 3 6 11 8 17 5
6 -4 5 -9 -3 -15z m-1794 -52 c-9 -4 -13 -13 -9 -18 3 -6 11 -3 18 7 12 16 17
14 59 -18 26 -19 43 -39 39 -43 -4 -5 -2 -5 4 -2 6 4 47 -14 90 -38 43 -25 98
-53 121 -61 38 -15 60 -44 33 -44 -18 0 -10 -18 10 -23 11 -3 18 -2 15 3 -3 4
1 13 9 19 11 9 29 7 81 -10 36 -11 98 -27 138 -34 40 -7 65 -14 56 -14 -8 -1
-24 -8 -35 -16 -16 -13 -17 -16 -4 -25 23 -15 4 -12 -100 14 -177 46 -344 119
-337 148 3 11 0 15 -9 11 -22 -8 -79 18 -62 28 9 6 8 9 -7 9 -11 0 -27 5 -35
11 -12 8 -10 9 7 4 20 -5 21 -4 10 18 -9 20 -17 23 -49 21 -24 -2 -36 0 -33 6
3 6 -1 10 -10 10 -9 0 -28 9 -42 20 -14 11 -20 20 -14 20 8 0 9 5 2 18 -7 13
-6 23 1 30 9 9 19 5 40 -15 24 -23 26 -28 13 -36z m1767 2 c-23 -20 -37 -25
-27 -9 3 6 -1 10 -9 10 -9 0 -16 -7 -16 -15 0 -8 -7 -15 -15 -15 -8 0 -15 8
-15 18 0 19 38 48 58 44 6 -2 12 2 12 8 0 6 7 4 16 -5 15 -15 15 -18 -4 -36z
m-133 -66 c-5 -42 -27 -64 -57 -56 -20 5 -24 3 -19 -10 4 -11 -5 -22 -29 -36
-20 -12 -40 -19 -45 -16 -5 4 -9 2 -9 -4 0 -12 -81 -51 -104 -51 -9 0 -16 -4
-16 -9 0 -5 -24 -12 -52 -16 -29 -4 -55 -11 -58 -14 -3 -4 -38 -18 -77 -30
-63 -20 -75 -22 -90 -10 -13 11 -17 11 -20 2 -3 -7 -9 -13 -14 -13 -6 0 -7 5
-4 10 3 6 1 10 -4 10 -6 0 -11 -7 -11 -15 0 -22 -18 -18 -25 5 -3 11 -11 20
-16 20 -5 0 -9 4 -9 9 0 4 32 12 70 18 56 7 70 6 70 -4 0 -20 17 -15 23 6 3
15 17 21 53 26 27 4 64 13 82 22 19 8 36 12 39 9 4 -3 12 -1 19 4 27 23 134
69 148 64 9 -3 19 3 26 16 7 12 18 19 26 16 8 -3 14 0 14 7 1 9 75 66 88 67 2
0 2 -12 1 -27z m-726 -223 c5 0 6 -4 2 -9 -3 -5 -1 -12 4 -15 5 -3 11 3 14 14
3 11 12 20 21 20 9 0 13 -6 10 -14 -3 -8 4 -21 16 -29 21 -14 18 -16 -45 -22
-62 -7 -202 0 -252 12 -22 5 -22 6 -5 29 16 23 20 23 122 19 58 -3 109 -5 113
-5z"/>
<path d="M1031 3624 c0 -11 3 -14 6 -6 3 7 2 16 -1 19 -3 4 -6 -2 -5 -13z"/>
<path d="M1053 3585 c-10 -10 -9 -16 3 -26 18 -15 22 -10 15 17 -5 18 -8 20
-18 9z"/>
<path d="M1070 3505 c-6 -8 -9 -18 -6 -23 7 -11 46 -23 44 -13 -1 3 3 16 10
29 12 20 11 22 -11 22 -14 0 -30 -7 -37 -15z"/>
<path d="M1154 3455 c-1 -14 2 -25 6 -25 16 0 19 17 7 34 -11 14 -12 13 -13
-9z"/>
<path d="M1110 3436 c0 -9 5 -16 10 -16 6 0 10 4 10 9 0 6 -4 13 -10 16 -5 3
-10 -1 -10 -9z"/>
<path d="M1180 3404 c0 -8 -4 -12 -10 -9 -13 8 -13 2 2 -30 6 -14 15 -25 20
-25 5 0 6 5 2 11 -4 7 -7 25 -6 40 0 16 -1 29 -4 29 -2 0 -4 -7 -4 -16z"/>
<path d="M1170 3250 c0 -5 5 -10 10 -10 6 0 10 5 10 10 0 6 -4 10 -10 10 -5 0
-10 -4 -10 -10z"/>
<path d="M1098 3233 c7 -3 16 -2 19 1 4 3 -2 6 -13 5 -11 0 -14 -3 -6 -6z"/>
<path d="M3244 3326 c-8 -22 -2 -27 16 -16 12 7 12 12 3 21 -10 10 -14 9 -19
-5z"/>
<path d="M3284 3238 c3 -10 1 -18 -4 -18 -5 0 -7 -7 -4 -15 4 -8 2 -15 -4 -15
-6 0 -9 -7 -8 -15 3 -22 16 -31 16 -12 0 10 5 25 11 36 9 13 9 22 0 37 -10 16
-12 16 -7 2z"/>
<path d="M3370 3210 c0 -5 4 -10 9 -10 6 0 13 5 16 10 3 6 -1 10 -9 10 -9 0
-16 -4 -16 -10z"/>
<path d="M3168 3128 c-2 -13 2 -34 9 -48 12 -21 14 -22 12 -5 -2 33 1 41 11
25 8 -12 10 -11 10 6 0 19 -17 44 -31 44 -4 0 -9 -10 -11 -22z"/>
<path d="M3305 3140 c3 -5 11 -10 16 -10 6 0 7 5 4 10 -3 6 -11 10 -16 10 -6
0 -7 -4 -4 -10z"/>
<path d="M3297 3113 c-4 -3 -7 -13 -7 -22 1 -13 3 -13 11 2 11 19 8 33 -4 20z"/>
<path d="M3387 3061 c-4 -17 -3 -21 5 -13 5 5 8 16 6 23 -3 8 -7 3 -11 -10z"/>
<path d="M3300 3020 c0 -6 11 -15 25 -22 23 -10 23 -12 9 -39 -13 -27 -11 -33
9 -30 4 1 17 -3 27 -9 26 -14 25 -2 -1 21 -21 18 -20 59 2 59 5 0 9 6 9 13 0
8 -15 14 -40 15 -23 2 -40 -2 -40 -8z"/>
<path d="M3255 2980 c-3 -5 -5 -10 -3 -11 28 -7 38 -5 38 7 0 16 -26 19 -35 4z"/>
<path d="M3381 2976 c-8 -9 -11 -19 -7 -23 9 -9 29 13 24 27 -2 8 -8 7 -17 -4z"/>
<path d="M3023 2965 c-36 -15 -42 -32 -17 -42 9 -3 24 3 36 15 30 29 20 43
-19 27z"/>
<path d="M3172 2969 c2 -6 8 -10 13 -10 5 0 11 4 13 10 2 6 -4 11 -13 11 -9 0
-15 -5 -13 -11z"/>
<path d="M3230 2910 c-12 -23 -5 -26 16 -6 16 17 18 26 4 26 -5 0 -14 -9 -20
-20z"/>
<path d="M3450 2874 c-24 -24 -46 -41 -48 -39 -3 2 -13 -6 -23 -18 l-19 -22 6
28 c5 23 3 27 -15 27 -12 0 -21 -6 -21 -15 0 -8 5 -15 10 -15 6 0 10 -4 10
-10 0 -5 -8 -7 -17 -3 -14 4 -15 3 -7 -6 9 -9 -2 -25 -42 -63 -60 -57 -69 -76
-25 -53 48 25 122 47 137 41 8 -3 14 -1 14 4 0 5 17 12 38 16 55 10 118 40
125 59 4 9 3 14 -2 10 -17 -10 -18 20 -2 32 14 10 12 13 -11 24 -15 6 -30 20
-33 31 -9 27 -25 21 -75 -28z"/>
<path d="M3347 2899 c7 -7 15 -10 18 -7 3 3 -2 9 -12 12 -14 6 -15 5 -6 -5z"/>
<path d="M3110 2891 c0 -6 5 -13 10 -16 6 -4 8 -11 5 -16 -4 -5 -1 -9 6 -9 7
0 9 -10 6 -27 -4 -20 1 -32 16 -45 23 -21 34 -24 19 -5 -6 7 -13 27 -17 44 -8
47 -23 83 -35 83 -5 0 -10 -4 -10 -9z"/>
<path d="M3188 2883 c7 -3 16 -2 19 1 4 3 -2 6 -13 5 -11 0 -14 -3 -6 -6z"/>
<path d="M3258 2873 c-10 -2 -18 -9 -18 -14 0 -14 16 -11 30 6 7 8 11 14 9 14
-2 -1 -12 -3 -21 -6z"/>
<path d="M3296 2865 c4 -8 2 -15 -4 -15 -6 0 -8 -9 -5 -20 3 -11 9 -20 14 -20
5 0 6 7 2 15 -3 9 3 25 12 35 17 19 17 20 -3 20 -15 0 -20 -5 -16 -15z"/>
<path d="M3392 2869 c2 -6 8 -10 13 -10 5 0 11 4 13 10 2 6 -4 11 -13 11 -9 0
-15 -5 -13 -11z"/>
<path d="M3245 2830 c-3 -5 -1 -10 4 -10 6 0 11 5 11 10 0 6 -2 10 -4 10 -3 0
-8 -4 -11 -10z"/>
<path d="M3170 2825 c0 -4 6 -13 14 -21 8 -7 12 -24 10 -36 -2 -13 -1 -16 2
-8 4 8 11 20 16 26 5 8 -1 17 -17 28 -14 9 -25 14 -25 11z"/>
<path d="M3224 2787 c-9 -11 -15 -47 -8 -47 7 0 44 44 44 52 0 12 -24 9 -36
-5z"/>
<path d="M3051 2774 c0 -11 3 -14 6 -6 3 7 2 16 -1 19 -3 4 -6 -2 -5 -13z"/>
<path d="M3125 2750 c3 -5 8 -10 11 -10 2 0 4 5 4 10 0 6 -5 10 -11 10 -5 0
-7 -4 -4 -10z"/>
<path d="M3154 2742 c1 -13 -6 -16 -33 -14 -23 3 -31 0 -26 -8 4 -6 9 -9 12
-6 3 3 14 1 24 -5 13 -6 19 -6 19 1 0 5 5 10 12 10 6 0 8 -3 5 -6 -3 -4 -1
-16 5 -28 11 -20 12 -20 19 8 9 33 6 42 -20 56 -15 7 -18 6 -17 -8z"/>
<path d="M2985 2741 c-3 -5 -1 -12 5 -16 5 -3 10 1 10 9 0 18 -6 21 -15 7z"/>
<path d="M3045 2733 c2 -10 4 -21 4 -25 1 -4 9 -4 18 -1 15 6 15 7 -3 14 -10
4 -13 8 -6 8 17 1 15 21 -2 21 -8 0 -13 -8 -11 -17z"/>
<path d="M3500 2715 c0 -8 -5 -15 -11 -15 -5 0 -7 -4 -4 -10 3 -5 11 -10 16
-10 6 0 8 4 5 9 -3 5 1 11 9 15 19 7 19 26 0 26 -8 0 -15 -7 -15 -15z"/>
<path d="M3440 2710 c0 -5 7 -10 16 -10 8 0 12 5 9 10 -3 6 -10 10 -16 10 -5
0 -9 -4 -9 -10z"/>
<path d="M3395 2701 c-3 -5 -1 -12 5 -16 5 -3 10 1 10 9 0 18 -6 21 -15 7z"/>
<path d="M3530 2700 c0 -5 5 -10 10 -10 6 0 10 5 10 10 0 6 -4 10 -10 10 -5 0
-10 -4 -10 -10z"/>
<path d="M3013 2693 c-7 -2 -13 -9 -13 -14 0 -6 4 -8 9 -5 5 4 12 0 14 -6 3
-7 6 -3 6 10 1 12 0 22 -1 21 -2 0 -9 -3 -15 -6z"/>
<path d="M3340 2690 c0 -5 5 -10 11 -10 5 0 7 5 4 10 -3 6 -8 10 -11 10 -2 0
-4 -4 -4 -10z"/>
<path d="M3495 2660 c3 -5 8 -10 11 -10 2 0 4 5 4 10 0 6 -5 10 -11 10 -5 0
-7 -4 -4 -10z"/>
<path d="M3196 2633 c-11 -11 -6 -23 9 -23 8 0 15 4 15 9 0 13 -16 22 -24 14z"/>
<path d="M3275 2630 c3 -5 8 -10 11 -10 2 0 4 5 4 10 0 6 -5 10 -11 10 -5 0
-7 -4 -4 -10z"/>
<path d="M3235 2619 c-4 -6 -5 -13 -2 -16 7 -7 27 6 27 18 0 12 -17 12 -25 -2z"/>
<path d="M2508 3363 c7 -3 16 -2 19 1 4 3 -2 6 -13 5 -11 0 -14 -3 -6 -6z"/>
<path d="M1980 3355 c0 -8 5 -15 10 -15 6 0 10 7 10 15 0 8 -4 15 -10 15 -5 0
-10 -7 -10 -15z"/>
<path d="M2804 3258 c3 -10 1 -18 -4 -18 -6 0 -10 -7 -10 -16 0 -14 -2 -15
-17 -3 -15 12 -16 12 -10 -3 5 -13 1 -18 -13 -18 -19 0 -19 -1 2 -25 28 -32
38 -31 71 3 31 32 35 60 10 69 -10 4 -22 11 -26 17 -6 7 -7 4 -3 -6z"/>
<path d="M2870 3232 c0 -12 19 -26 26 -19 2 2 -2 10 -11 17 -9 8 -15 8 -15 2z"/>
<path d="M2840 3150 c0 -6 7 -10 15 -10 8 0 15 2 15 4 0 2 -7 6 -15 10 -8 3
-15 1 -15 -4z"/>
<path d="M2960 3080 c0 -5 5 -10 10 -10 6 0 10 5 10 10 0 6 -4 10 -10 10 -5 0
-10 -4 -10 -10z"/>
<path d="M1236 3091 c-4 -7 -5 -15 -2 -18 9 -9 19 4 14 18 -4 11 -6 11 -12 0z"/>
<path d="M1087 3003 c-8 -7 23 -32 41 -33 10 0 10 5 2 20 -11 20 -31 26 -43
13z"/>
<path d="M1095 2960 c3 -5 8 -10 11 -10 2 0 4 5 4 10 0 6 -5 10 -11 10 -5 0
-7 -4 -4 -10z"/>
<path d="M1194 2955 c5 -11 9 -26 9 -32 0 -7 5 -13 10 -13 5 0 7 7 4 15 -4 8
-2 17 3 20 6 4 10 12 9 18 0 8 -2 8 -6 -1 -4 -10 -8 -10 -21 0 -14 11 -15 10
-8 -7z"/>
<path d="M1672 2779 c2 -6 8 -10 13 -10 5 0 11 4 13 10 2 6 -4 11 -13 11 -9 0
-15 -5 -13 -11z"/>
<path d="M1267 2709 c7 -7 15 -10 18 -7 3 3 -2 9 -12 12 -14 6 -15 5 -6 -5z"/>
<path d="M1476 2697 c-5 -15 -6 -31 -2 -34 11 -11 18 5 14 34 l-4 28 -8 -28z"/>
<path d="M1603 2707 c-6 -7 -6 -23 -2 -37 l9 -25 -4 27 c-2 19 2 28 13 30 11
2 12 6 5 11 -7 4 -16 1 -21 -6z"/>
<path d="M1500 2675 c0 -8 4 -15 10 -15 5 0 7 7 4 15 -4 8 -8 15 -10 15 -2 0
-4 -7 -4 -15z"/>
<path d="M1205 2670 c-3 -5 -1 -10 4 -10 6 0 11 5 11 10 0 6 -2 10 -4 10 -3 0
-8 -4 -11 -10z"/>
<path d="M1276 2661 c-11 -12 -14 -21 -7 -26 6 -3 11 -1 11 5 0 6 4 9 8 6 4
-2 8 4 8 15 0 23 1 23 -20 0z"/>
<path d="M1632 2666 c7 -8 15 -12 17 -11 5 6 -10 25 -20 25 -5 0 -4 -6 3 -14z"/>
<path d="M1340 2624 c0 -8 5 -12 10 -9 6 4 8 11 5 16 -9 14 -15 11 -15 -7z"/>
<path d="M1400 2625 c27 -14 36 -13 25 4 -3 6 -16 11 -28 11 -21 -1 -21 -1 3
-15z"/>
<path d="M1640 2620 c0 -5 5 -10 11 -10 5 0 7 5 4 10 -3 6 -8 10 -11 10 -2 0
-4 -4 -4 -10z"/>
<path d="M1505 2610 c-3 -5 1 -10 9 -10 9 0 16 5 16 10 0 6 -4 10 -9 10 -6 0
-13 -4 -16 -10z"/>
<path d="M1425 2870 c-3 -5 -1 -10 4 -10 6 0 11 5 11 10 0 6 -2 10 -4 10 -3 0
-8 -4 -11 -10z"/>
<path d="M950 2245 c0 -8 5 -15 10 -15 6 0 10 7 10 15 0 8 -4 15 -10 15 -5 0
-10 -7 -10 -15z"/>
<path d="M1575 2511 c-3 -5 -1 -12 5 -16 5 -3 10 1 10 9 0 18 -6 21 -15 7z"/>
<path d="M1745 2510 c-3 -5 -1 -10 4 -10 6 0 11 5 11 10 0 6 -2 10 -4 10 -3 0
-8 -4 -11 -10z"/>
<path d="M1480 2500 c-8 -5 -10 -10 -5 -11 6 -1 15 -2 20 -4 6 -1 16 -3 23 -3
7 -1 10 -6 7 -12 -3 -5 3 -10 13 -10 24 0 35 23 19 39 -13 13 -57 14 -77 1z"/>
<path d="M2040 2480 c0 -5 5 -10 11 -10 5 0 7 5 4 10 -3 6 -8 10 -11 10 -2 0
-4 -4 -4 -10z"/>
<path d="M1927 2469 c7 -7 15 -10 18 -7 3 3 -2 9 -12 12 -14 6 -15 5 -6 -5z"/>
<path d="M2851 2459 c-7 -12 -10 -23 -8 -26 3 -3 11 5 17 17 15 28 8 35 -9 9z"/>
<path d="M3038 2462 c-10 -2 -18 -7 -18 -10 0 -11 41 -34 48 -28 11 11 -13 42
-30 38z"/>
<path d="M1300 2451 c0 -15 28 -33 40 -26 8 5 8 11 -1 21 -13 15 -39 19 -39 5z"/>
<path d="M1481 2444 c0 -11 3 -14 6 -6 3 7 2 16 -1 19 -3 4 -6 -2 -5 -13z"/>
<path d="M1875 2450 c3 -5 8 -10 11 -10 2 0 4 5 4 10 0 6 -5 10 -11 10 -5 0
-7 -4 -4 -10z"/>
<path d="M2780 2450 c0 -5 5 -10 11 -10 5 0 7 5 4 10 -3 6 -8 10 -11 10 -2 0
-4 -4 -4 -10z"/>
<path d="M2952 2440 c-10 -17 -10 -20 3 -20 8 0 15 2 15 4 0 2 3 11 6 20 9 23
-9 20 -24 -4z"/>
<path d="M2730 2441 c0 -6 5 -13 10 -16 6 -3 10 1 10 9 0 9 -4 16 -10 16 -5 0
-10 -4 -10 -9z"/>
<path d="M1644 2413 c1 -14 7 -28 13 -31 20 -6 27 26 10 43 -21 21 -24 19 -23
-12z"/>
<path d="M2910 2430 c0 -5 5 -10 11 -10 5 0 7 5 4 10 -3 6 -8 10 -11 10 -2 0
-4 -4 -4 -10z"/>
<path d="M3081 2424 c0 -11 3 -14 6 -6 3 7 2 16 -1 19 -3 4 -6 -2 -5 -13z"/>
<path d="M2535 2410 c-7 -22 0 -40 16 -40 17 0 21 29 6 45 -14 13 -16 13 -22
-5z"/>
<path d="M2810 2421 c0 -6 5 -13 10 -16 6 -3 10 1 10 9 0 9 -4 16 -10 16 -5 0
-10 -4 -10 -9z"/>
<path d="M2946 2394 c-3 -8 3 -12 15 -11 10 1 19 6 19 12 0 16 -28 15 -34 -1z"/>
<path d="M3061 2394 c0 -11 3 -14 6 -6 3 7 2 16 -1 19 -3 4 -6 -2 -5 -13z"/>
<path d="M1765 2381 c-3 -6 -3 -11 2 -11 4 0 2 -4 -6 -9 -8 -5 -9 -11 -3 -15
6 -3 14 3 17 15 8 23 1 36 -10 20z"/>
<path d="M3165 2370 c-3 -5 -1 -10 4 -10 6 0 11 5 11 10 0 6 -2 10 -4 10 -3 0
-8 -4 -11 -10z"/>
<path d="M3078 2363 c7 -3 16 -2 19 1 4 3 -2 6 -13 5 -11 0 -14 -3 -6 -6z"/>
<path d="M2531 2344 c-8 -10 -22 -13 -37 -10 -28 7 -30 3 -8 -23 16 -18 19
-18 50 -3 19 10 33 23 31 31 -3 21 -20 23 -36 5z"/>
<path d="M1730 2336 c0 -9 5 -16 10 -16 6 0 10 4 10 9 0 6 -4 13 -10 16 -5 3
-10 -1 -10 -9z"/>
<path d="M1690 2320 c0 -5 5 -10 10 -10 6 0 10 5 10 10 0 6 -4 10 -10 10 -5 0
-10 -4 -10 -10z"/>
<path d="M2320 2316 c0 -8 7 -17 16 -20 21 -8 26 -3 18 18 -8 20 -34 21 -34 2z"/>
<path d="M2440 2316 c0 -9 5 -16 10 -16 6 0 10 4 10 9 0 6 -4 13 -10 16 -5 3
-10 -1 -10 -9z"/>
<path d="M2920 2305 c-7 -8 -9 -15 -6 -15 4 0 14 7 22 15 9 8 11 15 6 15 -5 0
-15 -7 -22 -15z"/>
<path d="M2525 2280 c-4 -6 -10 -8 -15 -5 -9 6 -40 -21 -40 -36 0 -15 18 -10
29 8 5 10 13 15 17 11 8 -9 34 9 34 23 0 12 -17 11 -25 -1z"/>
<path d="M2891 2274 c0 -11 3 -14 6 -6 3 7 2 16 -1 19 -3 4 -6 -2 -5 -13z"/>
<path d="M2426 2265 c-9 -26 -7 -32 5 -12 6 10 9 21 6 23 -2 3 -7 -2 -11 -11z"/>
<path d="M2300 2259 c0 -5 5 -7 10 -4 6 3 10 8 10 11 0 2 -4 4 -10 4 -5 0 -10
-5 -10 -11z"/>
<path d="M2101 2214 c0 -11 3 -14 6 -6 3 7 2 16 -1 19 -3 4 -6 -2 -5 -13z"/>
<path d="M2276 2205 c-3 -9 0 -15 8 -15 8 0 16 7 20 15 3 9 0 15 -8 15 -8 0
-16 -7 -20 -15z"/>
<path d="M3690 2299 c0 -5 5 -7 10 -4 6 3 10 8 10 11 0 2 -4 4 -10 4 -5 0 -10
-5 -10 -11z"/>
<path d="M1370 1970 c-9 -6 -10 -10 -3 -10 6 0 15 5 18 10 8 12 4 12 -15 0z"/>
<path d="M2580 2019 c0 -5 5 -7 10 -4 6 3 10 8 10 11 0 2 -4 4 -10 4 -5 0 -10
-5 -10 -11z"/>
<path d="M2597 2003 c-4 -3 -7 -11 -7 -17 0 -6 5 -5 12 2 6 6 9 14 7 17 -3 3
-9 2 -12 -2z"/>
<path d="M2450 1981 c0 -6 4 -13 10 -16 6 -3 7 1 4 9 -7 18 -14 21 -14 7z"/>
<path d="M3194 2075 c3 -8 1 -15 -4 -15 -5 0 -8 -9 -7 -20 2 -25 13 -26 20 -2
2 9 8 25 12 35 5 12 2 17 -10 17 -11 0 -15 -5 -11 -15z"/>
<path d="M3140 1980 c0 -5 5 -10 10 -10 6 0 10 5 10 10 0 6 -4 10 -10 10 -5 0
-10 -4 -10 -10z"/>
<path d="M1120 1621 c0 -6 5 -13 10 -16 6 -3 10 1 10 9 0 9 -4 16 -10 16 -5 0
-10 -4 -10 -9z"/>
<path d="M1507 1863 c-4 -3 -7 -13 -7 -21 0 -12 3 -12 15 -2 8 7 15 16 15 21
0 11 -14 12 -23 2z"/>
<path d="M1460 1807 c0 -8 6 -14 14 -14 8 0 12 6 9 14 -3 7 -9 13 -14 13 -5 0
-9 -6 -9 -13z"/>
<path d="M1530 1750 c0 -5 5 -10 10 -10 6 0 10 5 10 10 0 6 -4 10 -10 10 -5 0
-10 -4 -10 -10z"/>
<path d="M2267 1794 c-4 -4 -7 -14 -7 -23 0 -14 2 -14 10 -1 8 12 10 12 11 -5
0 -11 3 -15 5 -8 7 15 -10 46 -19 37z"/>
<path d="M2580 1810 c0 -5 5 -10 10 -10 6 0 10 5 10 10 0 6 -4 10 -10 10 -5 0
-10 -4 -10 -10z"/>
<path d="M2539 1768 c-7 -30 -7 -48 0 -48 12 0 21 39 10 46 -5 3 -9 4 -10 2z"/>
<path d="M3095 1840 c-4 -6 -3 -16 3 -22 6 -6 12 -6 17 2 4 6 3 16 -3 22 -6 6
-12 6 -17 -2z"/>
<path d="M3015 1790 c-3 -5 -1 -10 4 -10 6 0 11 5 11 10 0 6 -2 10 -4 10 -3 0
-8 -4 -11 -10z"/>
<path d="M2982 1728 c6 -18 25 -20 31 -3 5 10 0 15 -14 15 -12 0 -19 -5 -17
-12z"/>
<path d="M3080 1725 c0 -9 5 -15 11 -13 6 2 11 8 11 13 0 5 -5 11 -11 13 -6 2
-11 -4 -11 -13z"/>
<path d="M3440 1509 c0 -5 5 -7 10 -4 6 3 10 8 10 11 0 2 -4 4 -10 4 -5 0 -10
-5 -10 -11z"/>
<path d="M3410 1482 c0 -6 -7 -9 -15 -6 -8 4 -15 1 -15 -5 0 -6 6 -11 14 -11
17 0 31 18 22 27 -3 4 -6 1 -6 -5z"/>
<path d="M2116 1735 c4 -8 11 -15 16 -15 6 0 5 6 -2 15 -7 8 -14 15 -16 15 -2
0 -1 -7 2 -15z"/>
<path d="M2790 1578 c0 -6 3 -8 6 -5 4 3 15 2 25 -4 11 -6 19 -6 19 0 0 9 -23
21 -41 21 -5 0 -9 -5 -9 -12z"/>
<path d="M1817 1533 c-4 -3 -7 -11 -7 -17 0 -6 5 -5 12 2 6 6 9 14 7 17 -3 3
-9 2 -12 -2z"/>
<path d="M1898 1504 c-3 -3 -20 -6 -37 -6 -18 -1 -34 -5 -37 -9 -2 -4 17 -7
43 -5 26 1 47 6 46 10 -2 12 -9 17 -15 10z"/>
<path d="M2734 1480 c-41 -16 -38 -44 3 -46 13 0 21 2 18 4 -3 3 2 16 10 29
17 25 8 29 -31 13z"/>
<path d="M1875 1470 c-3 -5 -1 -10 5 -10 6 0 9 -4 6 -9 -7 -11 12 -27 44 -35
23 -5 23 -5 -3 7 -15 7 -25 16 -21 20 3 3 -1 13 -9 22 -10 9 -18 11 -22 5z"/>
<path d="M2583 1455 c-3 -9 -3 -19 1 -22 3 -4 6 1 6 10 0 8 6 18 13 20 9 4 9
6 -1 6 -7 1 -15 -6 -19 -14z"/>
<path d="M2245 1430 c3 -5 8 -10 11 -10 2 0 4 5 4 10 0 6 -5 10 -11 10 -5 0
-7 -4 -4 -10z"/>
<path d="M2220 1410 c0 -5 5 -10 11 -10 5 0 7 5 4 10 -3 6 -8 10 -11 10 -2 0
-4 -4 -4 -10z"/>
<path d="M2440 1399 c0 -5 5 -7 10 -4 6 3 10 8 10 11 0 2 -4 4 -10 4 -5 0 -10
-5 -10 -11z"/>
<path d="M2725 1010 c3 -5 8 -10 11 -10 2 0 4 5 4 10 0 6 -5 10 -11 10 -5 0
-7 -4 -4 -10z"/>
<path d="M2610 986 c0 -9 5 -16 10 -16 6 0 10 4 10 9 0 6 -4 13 -10 16 -5 3
-10 -1 -10 -9z"/>
<path d="M2330 936 c0 -9 5 -16 10 -16 6 0 10 4 10 9 0 6 -4 13 -10 16 -5 3
-10 -1 -10 -9z"/>
</g>
</svg>
